name C:/MyDriveSym/Projects/mobilecap/Data\Session20210825_0002\mocap\ForceDataProcessed\walking1_forces.mot
datacolumns 19
datarows 12
range 0.32950000 0.33500000
endheader 
time	R_ground_force_vx	R_ground_force_vy	R_ground_force_vz	R_ground_force_px	R_ground_force_py	R_ground_force_pz	R_ground_torque_x	R_ground_torque_y	R_ground_torque_z	L_ground_force_vx	L_ground_force_vy	L_ground_force_vz	L_ground_force_px	L_ground_force_py	L_ground_force_pz	L_ground_torque_x	L_ground_torque_y	L_ground_torque_z	
          0.32950000	        -39.81985300	        501.86342700	        -20.69333600	          0.21345500	          0.00600000	         -0.15186500	          0.00000000	          0.35549500	          0.00000000	          0.00000000	          0.00000000	          0.00000000	          0.69954400	          0.00000000	         -0.18593800	          0.00000000	          0.00000000	          0.00000000	
          0.33000000	        -39.53617700	        500.99717500	        -20.64833900	          0.21365900	          0.00600000	         -0.15178900	          0.00000000	          0.33847900	          0.00000000	          0.00000000	          0.00000000	          0.00000000	          0.69954400	          0.00000000	         -0.18593800	          0.00000000	          0.00000000	          0.00000000	
          0.33050000	        -39.25389100	        500.13754100	        -20.60364500	          0.21386400	          0.00600000	         -0.15171400	          0.00000000	          0.32139300	          0.00000000	          0.00000000	          0.00000000	          0.00000000	          0.69954400	          0.00000000	         -0.18593800	          0.00000000	          0.00000000	          0.00000000	
          0.33100000	        -38.97298800	        499.28456500	        -20.55925700	          0.21406900	          0.00600000	         -0.15163800	          0.00000000	          0.30423700	          0.00000000	          0.00000000	          0.00000000	          0.00000000	          0.69954400	          0.00000000	         -0.18593800	          0.00000000	          0.00000000	          0.00000000	
          0.33150000	        -38.69345900	        498.43829000	        -20.51518100	          0.21427500	          0.00600000	         -0.15156200	          0.00000000	          0.28701100	          0.00000000	          0.00000000	          0.00000000	          0.00000000	          0.69954400	          0.00000000	         -0.18593800	          0.00000000	          0.00000000	          0.00000000	
          0.33200000	        -38.41529800	        497.59875600	        -20.47142100	          0.21448100	          0.00600000	         -0.15148600	          0.00000000	          0.26971600	          0.00000000	          0.00000000	          0.00000000	          0.00000000	          0.69954400	          0.00000000	         -0.18593800	          0.00000000	          0.00000000	          0.00000000	
          0.33250000	        -38.13849700	        496.76600200	        -20.42798100	          0.21468800	          0.00600000	         -0.15140900	          0.00000000	          0.25235200	          0.00000000	          0.00000000	          0.00000000	          0.00000000	          0.69954400	          0.00000000	         -0.18593800	          0.00000000	          0.00000000	          0.00000000	
          0.33300000	        -37.86304700	        495.94006900	        -20.38486700	          0.21489500	          0.00600000	         -0.15133300	          0.00000000	          0.23492000	          0.00000000	          0.00000000	          0.00000000	          0.00000000	          0.69954400	          0.00000000	         -0.18593800	          0.00000000	          0.00000000	          0.00000000	
          0.33350000	        -37.58894000	        495.12099400	        -20.34208200	          0.21510400	          0.00600000	         -0.15125600	          0.00000000	          0.21742000	          0.00000000	          0.00000000	          0.00000000	          0.00000000	          0.69954400	          0.00000000	         -0.18593800	          0.00000000	          0.00000000	          0.00000000	
          0.33400000	        -37.31616900	        494.30881700	        -20.29963200	          0.21531200	          0.00600000	         -0.15117900	          0.00000000	          0.19985200	          0.00000000	          0.00000000	          0.00000000	          0.00000000	          0.69954400	          0.00000000	         -0.18593800	          0.00000000	          0.00000000	          0.00000000	
          0.33450000	        -37.04472400	        493.50357400	        -20.25752000	          0.21552100	          0.00600000	         -0.15110200	          0.00000000	          0.18221800	          0.00000000	          0.00000000	          0.00000000	          0.00000000	          0.69954400	          0.00000000	         -0.18593800	          0.00000000	          0.00000000	          0.00000000	
          0.33500000	        -36.77459800	        492.70530300	        -20.21575100	          0.21573100	          0.00600000	         -0.15102400	          0.00000000	          0.16451700	          0.00000000	          0.00000000	          0.00000000	          0.00000000	          0.69954400	          0.00000000	         -0.18593800	          0.00000000	          0.00000000	          0.00000000	
